# xmcd CD database file
#
# Track frame offsets:
#	150
#	12050
#	26457
#	40999
#	57802
#	69277
#	85515
#	99972
#	113835
#	127297
#	140502
#	153265
#	167595
#	182303
#	196250
#	212115
#	227145
#	238760
#	267328
#	281685
#	310103
#
# Disc length: 4156 seconds
#
# Revision: 0
# Processed by: cddbd v1.5.1PL0 Copyright (c) Steve Scherf et al.
# Submitted via: CDex 1.51
#
DISCID=14103a15
DTITLE=Johnny Hodges - A Gentle Breeze
DYEAR=1900
DGENRE=Jazz
TTITLE0=Hodge Podge
TTITLE1=Junior Hop
TTITLE2=Passion Flower
TTITLE3=Things Ain't What They Used To Be
TTITLE4=Hop, Skip And Jump
TTITLE5=Rabbit's Blues (You Blew Out The Flame in My Heart)
TTITLE6=My Reward
TTITLE7=Good Queen Bess
TTITLE8=Jeep's Blues
TTITLE9=Solitude
TTITLE10=The Jeep Is Empty
TTITLE11=Sophisticated Lady
TTITLE12=A Gentle Breeze
TTITLE13=Who's Excited
TTITLE14=I Got It Bad And That Ain't Good
TTITLE15=Through For The Night
TTITLE16=Come Sunday
TTITLE17=In A Mellow Tone
TTITLE18=I Let A Song Go Out Of My Heart
TTITLE19=Don't Get Around Much Anymore
TTITLE20=data track
EXTD=
EXTT0=
EXTT1=
EXTT2=
EXTT3=
EXTT4=
EXTT5=
EXTT6=
EXTT7=
EXTT8=
EXTT9=
EXTT10=
EXTT11=
EXTT12=
EXTT13=
EXTT14=
EXTT15=
EXTT16=
EXTT17=
EXTT18=
EXTT19=
EXTT20=
PLAYORDER=
